<svg version="1.2" xmlns="http://www.w3.org/2000/svg" viewBox="0 0 371 273" width="500" height="368">
	<title>fastcrypto_logo-svg</title>
	<style>
		.s0 { fill: #1c1c1b } 
	</style>
	<g id="Layer_1">
		<path id="Layer" class="s0" d="m300.5 100.5q0 0.2 0 0.4-0.1 0.2-0.1 0.4 0 0.2-0.1 0.3-0.1 0.2-0.1 0.4-0.1 0.2-0.2 0.3-0.1 0.2-0.2 0.3-0.1 0.2-0.2 0.3l-0.2 0.2-0.1 0.1-0.2 0.2-0.4 0.5q-0.4 0.5-0.9 1-0.1 0.1-0.2 0.2-0.2 0.1-0.3 0.2-0.1 0.1-0.3 0.3-0.1 0.1-0.2 0.2-0.1 0-0.2 0.1-0.1 0-0.1 0.1-0.1 0-0.2 0.1-0.1 0-0.2 0-0.1 0.1-0.2 0.1-0.1 0.1-0.2 0.1-0.1 0-0.2 0.1-0.1 0-0.2 0-0.1 0-0.2 0-0.1 0-0.2 0-0.1 0-0.2 0-0.1 0-0.2 0-0.1 0-0.2 0-0.1-0.1-0.2-0.1-0.1 0-0.2 0-0.1-0.1-0.2-0.1-0.1 0-0.2-0.1-0.1 0-0.1 0-0.1-0.1-0.2-0.1-0.1-0.1-0.2-0.1-0.1-0.1-0.3-0.2l-0.2-0.1q-0.6-0.3-1.1-0.6-0.6-0.3-1.1-0.6-0.6-0.2-1.1-0.5-0.6-0.2-1.2-0.5-1.1-0.4-2.3-0.8-1.2-0.3-2.3-0.5-1.2-0.3-2.5-0.4-1.2-0.1-2.4-0.1-0.6 0-1.2 0-0.6 0-1.2 0.1-0.6 0.1-1.2 0.2-0.6 0.1-1.2 0.2-0.6 0.1-1.2 0.3-0.6 0.1-1.1 0.3-0.6 0.2-1.2 0.4-0.6 0.3-1.1 0.5-0.6 0.2-1.1 0.5-0.6 0.3-1.1 0.6-0.5 0.3-1 0.6-0.6 0.3-1.1 0.6-0.2 0.2-0.5 0.4-0.2 0.2-0.5 0.3l-1 0.8-2 1.5c-2.8 1.9-5.5 3.9-8.3 5.8q-2.1 1.5-4.2 2.9l-4.2 2.7-3 2q0.3 0 0.6 0 0.3 0 0.5 0 0.3 0 0.6 0 0.3 0 0.6 0 1.4 0 2.8-0.3 1.3-0.3 2.6-0.7 1.3-0.5 2.5-1.1 1.2-0.7 2.3-1.5 0.3-0.2 0.6-0.4 0.2-0.2 0.5-0.4 0.3-0.3 0.5-0.5 0.3-0.2 0.5-0.5l1-0.9q0.6-0.5 1.1-1 2-1.9 4.3-3.5 0.6-0.5 1.1-0.9 0.6-0.4 1.2-0.7 0.6-0.4 1.2-0.8 0.6-0.4 1.2-0.7 0.6-0.4 1.2-0.7 0.6-0.3 1.3-0.6 0.6-0.3 1.3-0.6 0.6-0.3 1.3-0.5 0.6-0.3 1.3-0.5 0.6-0.2 1.3-0.4 0.7-0.2 1.4-0.4 0.7-0.1 1.3-0.2 0.7-0.2 1.4-0.3 0.7-0.1 1.4-0.1 0.7-0.1 1.4-0.1 0.7 0 1.4 0 0.4 0 0.7 0.1 0.4 0 0.7 0 0.4 0.1 0.7 0.1 0.4 0.1 0.7 0.1 0.3 0.1 0.7 0.2 0.3 0 0.7 0.1 0.3 0.1 0.6 0.2 0.4 0.1 0.7 0.3-0.3-0.2-0.7-0.3-0.3-0.1-0.6-0.1-0.4-0.1-0.7-0.2-0.4-0.1-0.7-0.1-0.3-0.1-0.7-0.1-0.3-0.1-0.7-0.1-0.3 0-0.7 0-0.3-0.1-0.7-0.1-0.7 0-1.4 0.1-0.7 0-1.4 0-0.7 0.1-1.3 0.2-0.7 0.1-1.4 0.2c-3.7 0.8-7.1 2.2-10.3 4.1q-0.6 0.4-1.2 0.7-0.6 0.4-1.2 0.8-0.5 0.4-1.1 0.8-0.6 0.4-1.1 0.8-2.2 1.7-4.3 3.6-0.5 0.5-1 1l-1 1q-0.2 0.2-0.5 0.5-0.2 0.2-0.5 0.4-0.3 0.3-0.5 0.5-0.3 0.2-0.6 0.4-1.1 0.9-2.4 1.6-1.2 0.7-2.6 1.2-1.3 0.5-2.7 0.7-1.4 0.3-2.8 0.4-0.7 0-1.4 0-0.7 0-1.5-0.1-0.7 0-1.4-0.1-0.7-0.1-1.4-0.2-0.7-0.2-1.4-0.3-0.6-0.2-1.3-0.4-0.7-0.2-1.4-0.4-0.6-0.2-1.3-0.5-0.7-0.2-1.3-0.5-0.7-0.3-1.3-0.6-0.7-0.3-1.3-0.6-0.6-0.3-1.2-0.6-1.6-0.8-3.1-1.7l0.6-0.9q1.5 0.9 2.9 1.7 0.6 0.4 1.2 0.7 0.7 0.3 1.3 0.6 0.6 0.3 1.2 0.5 0.7 0.3 1.3 0.6 0.6 0.2 1.2 0.4 0.6 0.2 1.2 0.4 0.6 0.2 1.2 0.3 0.7 0.2 1.3 0.3l5.2-3.3c2.9-1.8 5.7-3.6 8.5-5.5 2.8-1.9 5.5-3.8 8.2-5.8l2.1-1.4 1-0.7q0.3-0.2 0.6-0.4 0.2-0.2 0.5-0.4 0.6-0.3 1.1-0.7 0.6-0.3 1.1-0.6 0.6-0.3 1.2-0.6 0.6-0.3 1.2-0.6 0.6-0.2 1.2-0.4 0.6-0.3 1.3-0.4 0.6-0.2 1.2-0.4 0.7-0.2 1.3-0.3 0.6-0.1 1.3-0.2 0.6-0.1 1.3-0.2 0.6 0 1.3-0.1 0.7 0 1.3 0 1.3 0.1 2.6 0.2 1.3 0.2 2.6 0.4 1.3 0.3 2.5 0.7 1.2 0.4 2.4 0.9 1.2 0.5 2.4 1.1c0.8 0.4 1.5 0.8 2.2 1.2 0.7 0.5 1.4 0.8 1.9 0.7 0.5 0 1.1-0.5 1.7-1.1q0.4-0.4 0.9-0.8l0.4-0.5 0.2-0.2 0.1-0.2 0.1-0.1q0.1-0.1 0.2-0.2 0-0.1 0.1-0.2 0.1-0.1 0.1-0.2 0.1-0.1 0.1-0.2 0.1-0.1 0.1-0.3 0-0.1 0-0.2 0.1-0.1 0.1-0.2 0-0.2 0-0.3c-0.1-0.7-0.4-1.4-0.7-2.2-0.4-0.7-0.7-1.5-1.1-2.2q-0.1-0.3-0.3-0.6-0.1-0.3-0.2-0.6-0.1-0.4-0.2-0.7-0.1-0.3-0.2-0.6-0.1-0.1-0.1-0.3 0-0.2-0.1-0.3 0-0.2 0-0.4-0.1-0.1-0.1-0.3 0-0.1 0-0.3 0-0.2-0.1-0.3 0-0.1 0-0.2 0-0.1 0-0.1 0-0.1 0-0.2 0 0-0.1-0.1 0-0.3-0.1-0.5-0.1-0.3-0.3-0.6-0.1-0.2-0.3-0.5-0.1-0.2-0.3-0.4-0.2-0.2-0.4-0.5-0.2-0.2-0.4-0.4-0.3-0.2-0.5-0.4-0.2-0.2-0.4-0.4-0.5-0.4-1-0.8-0.5-0.4-1-0.7-0.5-0.4-1.1-0.7-0.5-0.3-1.1-0.6-0.5-0.3-1.1-0.6-0.5-0.3-1.1-0.5-0.5-0.3-1.1-0.6-0.6-0.2-1.2-0.4 0-0.1 0-0.1 0 0-0.1 0 0 0 0-0.1 0 0 0 0l-0.2-0.7q0-0.2-0.1-0.4l-0.1-0.3q-0.1-0.2-0.1-0.4l-0.2-0.3q-0.1-0.3-0.2-0.7l-0.2-0.3-0.2-0.3q-0.1-0.2-0.2-0.3-0.1-0.2-0.2-0.3-0.1-0.2-0.2-0.3-0.1-0.2-0.2-0.3-0.2-0.1-0.3-0.2 0-0.1 0-0.1-0.1 0-0.1 0 0 0-0.1-0.1 0 0 0 0l-0.3 0.4-0.2 0.3q-0.1 0.1-0.2 0.3-0.2 0.2-0.3 0.5l-0.2 0.3-0.2 0.2q0 0.2-0.1 0.3-0.1 0.2-0.2 0.3-0.1 0.3-0.2 0.6-0.1 0.3-0.2 0.6 0 0.1 0 0.2-0.1 0-0.1 0.1 0 0.1 0 0.2 0 0 0 0.1 0-0.1 0-0.1 0-0.1 0-0.2 0-0.1 0-0.2 0 0 0.1-0.1 0-0.3 0.1-0.6 0.1-0.3 0.3-0.6 0-0.2 0.1-0.3 0.1-0.2 0.1-0.3l0.2-0.3 0.1-0.3q0.2-0.3 0.3-0.5 0.1-0.2 0.2-0.3l0.2-0.3 0.4-0.5q0 0 0 0 0 0 0 0 0 0 0 0 0.1 0 0.1 0 0 0 0.1 0 0 0 0.1 0.1 0 0 0 0 0.1 0 0.1 0.1 0.2 0.1 0.3 0.2 0.2 0.1 0.3 0.3 0.1 0.1 0.2 0.3 0.1 0.1 0.3 0.3 0.1 0.1 0.2 0.3l0.2 0.3 0.1 0.4q0.2 0.3 0.4 0.6l0.1 0.4q0.1 0.2 0.2 0.3l0.1 0.4q0.1 0.2 0.1 0.3l0.2 0.6q0.6 0.3 1.2 0.5 0.6 0.2 1.1 0.5 0.6 0.2 1.2 0.5 0.5 0.2 1.1 0.5 0.6 0.3 1.1 0.6 0.6 0.3 1.1 0.6 0.6 0.4 1.1 0.7 0.5 0.4 1 0.8 0.3 0.2 0.5 0.4 0.3 0.2 0.5 0.4 0.3 0.3 0.5 0.5 0.2 0.2 0.4 0.5 0.3 0.2 0.5 0.5 0.1 0.3 0.3 0.6 0.2 0.3 0.3 0.6 0.2 0.3 0.3 0.7 0 0 0 0.1 0 0.1 0 0.2 0.1 0.1 0.1 0.2 0 0.1 0 0.1 0 0.2 0 0.4 0.1 0.1 0.1 0.2 0 0.2 0.1 0.3 0 0.2 0 0.3 0.1 0.2 0.1 0.3 0 0.2 0.1 0.3 0.1 0.3 0.2 0.6 0.1 0.3 0.2 0.5 0.1 0.3 0.2 0.6 0.2 0.3 0.3 0.6c0.3 0.7 0.8 1.4 1.1 2.2q0.1 0.2 0.2 0.3 0 0.2 0.1 0.3 0.1 0.2 0.1 0.3 0.1 0.2 0.2 0.3 0 0.2 0.1 0.4 0 0.1 0.1 0.3 0 0.2 0 0.4 0.1 0.1 0.1 0.3 0 0.2 0 0.4z"/>
		<path id="Layer" fill-rule="evenodd" class="s0" d="m235.2 123.3c0.9 0.2 2 0.4 3.3 0.6l-2.9 1.9-0.5 0.3-0.3 0.2-0.1 0.1h-0.1l-0.1 0.1q-0.6 0.3-1.1 0.6-1.1 0.6-2.2 1.2-2.3 1.2-4.5 2.4-4.6 2.2-9.3 4.2-4.7 2-9.5 3.6-0.5 0.2-0.9 0.3 0.1 0.1 0.2 0.2 0 0.2 0.1 0.3 0.1 0.1 0.2 0.2 0.1 0.1 0.2 0.2 0.1 0.1 0.2 0.2 0.1 0.1 0.2 0.2 0.1 0.1 0.3 0.2 0.1 0 0.2 0.1 0.1 0.1 0.2 0.2 0.1 0.1 0.2 0.1 0.1 0.1 0.2 0.2 0.2 0 0.3 0.1 0.2 0.2 0.5 0.3l0.2 0.1q0.1 0 0.3 0.1l1.1 0.5q2.2 0.9 4.3 2.1 2.2 1.1 4.2 2.4 2.1 1.2 4 2.7 0.5 0.4 1 0.8 0.4 0.4 0.9 0.8 0.5 0.4 0.9 0.8 0.4 0.4 0.9 0.9 0.2 0.2 0.4 0.4 0.2 0.3 0.4 0.5 0.2 0.3 0.4 0.5 0.2 0.3 0.4 0.5 0 0.2 0.1 0.3 0.1 0.2 0.2 0.3 0.1 0.1 0.2 0.3 0 0.1 0.1 0.3 0.1 0.1 0.2 0.3 0 0.2 0.1 0.3 0 0.2 0.1 0.3 0 0.2 0.1 0.4 0 0.2 0.1 0.3c0 0.2 0 0.3 0 0.4v0.4q0 0.2 0 0.3 0 0.2-0.1 0.4 0 0.2-0.1 0.4 0 0.2-0.1 0.4-0.1 0.2-0.2 0.3 0 0.2-0.2 0.4-0.1 0.1-0.2 0.3-0.1 0.1-0.3 0.3-0.1 0.1-0.3 0.2-0.1 0.1-0.3 0.2-0.1 0.1-0.3 0.2-0.2 0.1-0.3 0.2-0.2 0-0.4 0.1-0.3 0.1-0.6 0.2-0.4 0-0.7 0.1-0.3 0.1-0.6 0.1-0.4 0-0.7 0-0.7 0-1.3 0-0.3-0.1-0.6-0.1h-0.3q-0.2-0.1-0.4-0.1-0.2 0-0.4-0.2-0.1-0.1-0.2-0.3-0.1-0.2-0.1-0.4 0-0.2 0.1-0.4 0.1-0.2 0.2-0.4 0-0.2 0.1-0.4 0-0.2 0-0.4 0-0.2 0-0.4-0.1-0.2-0.1-0.4-0.1-0.2-0.2-0.4-0.1-0.2-0.2-0.4-0.1-0.2-0.2-0.4-0.2-0.2-0.4-0.4-0.1-0.1-0.3-0.3-0.2-0.2-0.4-0.4-0.1-0.1-0.3-0.3-0.2-0.1-0.4-0.3-0.3-0.2-0.5-0.3-0.2-0.2-0.4-0.3-0.2-0.1-0.4-0.3-0.9-0.5-1.9-1-0.9-0.5-1.9-0.9l-0.3-0.1-0.1-0.1h-0.2l-1.5-0.7-2-0.9-16.2-7q-0.2-0.1-0.3-0.2-0.2-0.1-0.2-0.3-0.1-0.2-0.1-0.4 0-0.1 0-0.3c0-0.1 0.1-0.3 0.1-0.4l0.1-0.3q0-0.4 0.1-0.8 0.1-0.8 0.2-1.5 0-0.4 0-0.8 0.1-0.4 0.1-0.8 0-0.4 0-0.8-0.1-0.3-0.1-0.7 0-0.8-0.1-1.6-0.1-0.7-0.3-1.5-0.2-0.7-0.4-1.5-0.2-0.7-0.5-1.4-0.1-0.4-0.3-0.7-0.1-0.4-0.3-0.7-0.2-0.4-0.4-0.7-0.2-0.4-0.4-0.7-0.2-0.3-0.4-0.6-0.2-0.3-0.4-0.6-0.3-0.4-0.5-0.7-0.2-0.2-0.5-0.5-0.5-0.6-1.1-1.1-0.5-0.6-1.1-1.1-0.6-0.5-1.3-0.9-0.6-0.5-1.2-0.9-0.4-0.2-0.7-0.4-0.4-0.2-0.7-0.3-0.3-0.2-0.7-0.4-0.3-0.2-0.7-0.3l-0.4-0.2-0.3-0.2q-0.4-0.1-0.7-0.3-0.4-0.1-0.8-0.3l-0.7-0.2-0.4-0.2-0.4-0.1q-0.4-0.2-0.8-0.3-0.8-0.3-1.5-0.7-0.4-0.1-0.8-0.3-0.4-0.2-0.7-0.4-0.4-0.2-0.8-0.4-0.4-0.2-0.7-0.4-0.8-0.4-1.5-0.9-0.7-0.5-1.3-1-0.7-0.6-1.3-1.1-0.7-0.6-1.3-1.2-0.6-0.6-1.1-1.3-0.5-0.6-1-1.3-0.5-0.8-1-1.5-0.4-0.7-0.8-1.5-0.3-0.8-0.6-1.6-0.4-0.8-0.6-1.6-0.3-0.8-0.5-1.6-0.2-0.8-0.3-1.7-0.3-1.6-0.5-3.3l-0.1-0.8q0-0.1 0-0.2-2.8 1.2-5.5 2.4l-6 2.5-12 5.1-6 2.5-3 1.2q-0.8 0.3-1.5 0.7-0.8 0.3-1.5 0.6-3.1 1.2-6.2 2.2-3.2 1-6.4 1.7c-4.3 1.1-8.7 1.7-13.1 1.8q-0.9 0-1.7-0.1-0.8 0-1.7 0-0.8-0.1-1.6-0.2-0.9-0.1-1.7-0.2-1.7-0.3-3.3-0.7-0.4-0.1-0.8-0.3-0.4-0.1-0.8-0.2-0.4-0.1-0.8-0.3-0.4-0.1-0.8-0.3-0.8-0.3-1.6-0.6-0.7-0.4-1.5-0.8-0.7-0.4-1.5-0.9-0.7-0.4-1.4-0.9-0.7-0.5-1.3-1.1-0.7-0.5-1.3-1.1-0.6-0.6-1.2-1.2-0.6-0.6-1.1-1.3-0.5-0.7-1-1.4-0.5-0.7-0.9-1.4-0.5-0.7-0.9-1.5-0.4-0.7-0.7-1.5-0.2-0.4-0.3-0.8-0.2-0.4-0.4-0.8-0.1-0.4-0.2-0.8-0.2-0.4-0.3-0.8-0.2-0.8-0.4-1.7-0.1-0.4-0.2-0.8v-0.4l-0.1-0.5q-0.1-0.8-0.2-1.7 0-0.8 0-1.7 0-0.8 0.1-1.7 0.1-0.8 0.2-1.7 0.2-0.8 0.4-1.7 0.2-0.8 0.4-1.6 0.3-0.8 0.6-1.6 0.4-0.8 0.8-1.6 0.4-0.7 0.8-1.5 0.5-0.7 1-1.4 0.6-0.7 1.1-1.3 0.6-0.6 1.3-1.2 0.6-0.6 1.3-1.1 0.7-0.6 1.4-1 0.8-0.5 1.5-0.9 0.8-0.4 1.6-0.7 0.4-0.1 0.8-0.3 0.2-0.1 0.4-0.1l0.4-0.1q0.2-0.1 0.4-0.2 0.3 0 0.5-0.1 0.2 0 0.4-0.1 0.2 0 0.4-0.1 0.2 0 0.5 0 0.2-0.1 0.4-0.1 0.2 0 0.5-0.1 0.2 0 0.4 0 0.2 0 0.5 0 0.2 0 0.5 0 0.2 0 0.4 0.1 0.3 0 0.5 0.1 0.3 0 0.5 0.1 0.2 0.1 0.5 0.2 0.2 0.1 0.5 0.2 0.2 0.1 0.4 0.2 0.2 0.2 0.4 0.4 0.2 0.2 0.4 0.4 0.2 0.2 0.3 0.4 0.2 0.2 0.3 0.4 0.1 0.2 0.2 0.5 0.1 0.2 0.2 0.5 0.1 0.2 0.2 0.4 0 0.3 0.1 0.5 0 0.1 0 0.3 0 0.1 0 0.2 0 0.1 0 0.2 0 0.2 0 0.3 0 0.2 0 0.5 0 0.1 0 0.2v0.1 0.2q0 0.2-0.1 0.4-0.1 0.1-0.2 0.3-0.2 0.1-0.4 0.2-0.1 0-0.3 0.1h-0.1q-0.9 0-1.7 0.2-0.9 0.2-1.8 0.5-0.8 0.3-1.6 0.7-0.8 0.4-1.6 1-0.7 0.5-1.4 1.1-0.7 0.6-1.2 1.3-0.6 0.7-1.1 1.5-0.5 0.8-1 1.6-0.4 0.8-0.7 1.7-0.3 0.8-0.5 1.7-0.1 0.9-0.2 1.8-0.1 0.9 0 1.9 0 0.9 0.2 1.8 0.2 0.8 0.5 1.7 0.3 0.9 0.7 1.7 0.5 0.8 1 1.5 0.3 0.4 0.6 0.7 0.3 0.4 0.6 0.7 0.3 0.4 0.6 0.7 0.4 0.3 0.7 0.6 0.4 0.3 0.7 0.6 0.4 0.3 0.8 0.6 0.4 0.2 0.7 0.5 0.4 0.2 0.8 0.5 0.4 0.2 0.9 0.4l0.8 0.5 0.9 0.4 0.8 0.3q0.5 0.2 0.9 0.4 0.4 0.1 0.9 0.3 0.4 0.1 0.9 0.2 0.5 0.1 0.9 0.2 0.9 0.2 1.9 0.3 0.9 0.2 1.9 0.2 0.9 0.1 1.9 0.1 0.9 0 1.9-0.1 0.9-0.1 1.9-0.2 0.9-0.1 1.9-0.3 0.9-0.1 1.9-0.3 0.9-0.2 1.8-0.5 1-0.2 1.9-0.5 0.9-0.2 1.8-0.5 1-0.3 1.9-0.7 0.9-0.3 1.8-0.6 3.7-1.4 7.2-3c4.8-2.1 9.5-4.5 14.1-6.8 4.7-2.4 9.4-4.7 14.2-7q3.6-1.6 7.2-3.2 0.9-0.3 1.8-0.7l1.9-0.7q0.9-0.4 1.8-0.7 1-0.4 1.9-0.7 3.7-1.4 7.5-2.5 0.9-0.3 1.9-0.6 0.9-0.2 1.9-0.5 1-0.2 1.9-0.4 1-0.2 2-0.4c1.3-0.3 2.6-0.5 3.9-0.6q1-0.1 2-0.2 0.5 0 1 0h0.5 0.5q0.5-0.1 1 0h1q1 0 2 0.1 2 0.2 4 0.6c2.6 0.5 5.1 1.2 7.7 1.9q1.9 0.5 3.7 1 1.9 0.5 3.9 1.1c5 1.4 10 3 15.1 3.9q2 0.4 3.9 0.6 1.9 0.3 3.9 0.4 0.9 0 1.9 0.1 1 0 2 0 1 0 1.9 0 1-0.1 2-0.1 3.9-0.2 7.8-0.8 0.9-0.2 1.9-0.3l1.9-0.4 3.9-0.7q1-0.2 1.9-0.4 1-0.1 2-0.2 1-0.2 2-0.3 0.9-0.1 1.9-0.1 1-0.1 2-0.1 1-0.1 2 0 1 0 1.9 0 1 0.1 2 0.1 1 0.1 2 0.3 0.9 0.1 1.9 0.3 1 0.2 1.9 0.4 1 0.3 1.9 0.6 0.5 0.1 1 0.3 0.4 0.2 0.9 0.3 0.5 0.2 0.9 0.4 0.5 0.2 0.9 0.5 0.9 0.4 1.7 0.9 0.2 0.2 0.4 0.3 0.2 0.1 0.4 0.3 0.2 0.1 0.4 0.3 0.2 0.2 0.4 0.3-0.2-0.1-0.4-0.3-0.2-0.1-0.4-0.3-0.2-0.1-0.4-0.3-0.2-0.1-0.4-0.2-0.9-0.5-1.7-1-0.5-0.2-0.9-0.4-0.5-0.2-0.9-0.4-0.5-0.1-1-0.3-0.4-0.1-0.9-0.3-0.9-0.3-1.9-0.5-0.9-0.2-1.9-0.4-1-0.2-2-0.3-0.9-0.1-1.9-0.2-1 0-2-0.1-0.9 0-1.9 0-1 0-2 0.1-1 0-1.9 0.1-1 0.1-2 0.2-1 0.1-1.9 0.2-1 0.2-2 0.3-0.9 0.2-1.9 0.4l-3.8 0.8-2 0.4q-1 0.1-1.9 0.3-3.9 0.7-7.9 0.9-1 0.1-1.9 0.2-1 0-2 0-1 0-2 0-1 0-2-0.1-2-0.1-3.9-0.3-2-0.2-3.9-0.6c-5.2-0.9-10.3-2.4-15.3-3.7q-1.9-0.5-3.8-1-2-0.5-3.9-1c-2.5-0.7-5-1.4-7.6-1.8q-1.9-0.4-3.8-0.5-0.5-0.1-1-0.1-0.4 0-0.9-0.1-0.5 0-1 0-0.5 0-1 0h-0.4l-0.5 0.1q-0.5 0-1 0-0.9 0.1-1.9 0.2c-1.3 0.1-2.6 0.3-3.8 0.6q-1 0.2-1.9 0.4-1 0.2-1.9 0.5-1 0.2-1.9 0.5-1 0.2-1.9 0.5-3.7 1.2-7.4 2.5-0.9 0.4-1.8 0.7-0.9 0.4-1.8 0.8l-1.8 0.7q-1 0.4-1.9 0.8-3.6 1.5-7.1 3.2c-4.7 2.2-9.4 4.6-14.1 7-4.6 2.3-9.3 4.7-14.1 6.9-2.4 1.1-4.8 2.2-7.3 3.1q-0.9 0.4-1.9 0.7-0.9 0.3-1.9 0.6-0.9 0.4-1.9 0.6-0.9 0.3-1.9 0.6-1 0.2-1.9 0.5-1 0.2-2 0.3-1 0.2-2 0.3-1 0.2-2 0.2-1 0.1-2 0.1-1.1 0-2.1 0-1-0.1-2-0.2-1-0.1-2-0.3-0.5-0.2-1-0.3-0.5-0.1-1-0.3-0.5-0.1-1-0.3-0.5-0.1-0.9-0.3l-1-0.4-0.9-0.4-0.9-0.5q-0.5-0.3-0.9-0.5-0.5-0.3-0.9-0.6-0.4-0.2-0.9-0.5-0.4-0.3-0.8-0.6-0.4-0.4-0.8-0.7-0.4-0.3-0.8-0.7-0.3-0.4-0.7-0.7-0.3-0.4-0.7-0.8-0.3-0.4-0.6-0.9-0.2-0.2-0.3-0.4-0.2-0.2-0.3-0.4-0.1-0.3-0.3-0.5-0.1-0.2-0.2-0.4-0.3-0.5-0.5-1-0.2-0.5-0.4-1-0.2-0.5-0.3-1-0.2-0.5-0.3-1-0.1-0.3-0.1-0.5 0-0.3-0.1-0.6 0-0.2 0-0.5-0.1-0.2-0.1-0.5 0-1.1 0-2.1 0.1-1.1 0.3-2.1 0.2-1 0.6-2 0.3-1 0.8-2 0.4-0.9 1-1.8 0.6-0.9 1.3-1.7 0.6-0.8 1.4-1.5 0.8-0.7 1.6-1.3 0.5-0.4 0.9-0.6 0.5-0.3 0.9-0.6 0.5-0.2 1-0.4 0.5-0.3 1-0.4 0.3-0.2 0.7-0.3 0.4-0.1 0.8-0.2 0.4-0.1 0.8-0.2 0.4 0 0.8-0.1 0-0.2-0.1-0.4 0-0.2 0-0.3-0.1-0.2-0.1-0.3-0.1-0.2-0.1-0.3-0.1-0.1-0.1-0.3-0.6-1-1.9-1.2c-0.8-0.2-1.8-0.1-2.7 0.1q-0.2 0-0.4 0-0.2 0.1-0.4 0.1-0.2 0.1-0.3 0.1-0.2 0.1-0.4 0.1l-0.4 0.1q-0.2 0.1-0.4 0.2-0.3 0.1-0.7 0.2-0.7 0.3-1.3 0.7-0.7 0.3-1.4 0.7-0.6 0.4-1.2 0.9-0.6 0.4-1.2 1-0.5 0.5-1.1 1-0.5 0.6-0.9 1.2-0.5 0.6-0.9 1.3-0.4 0.6-0.8 1.3-0.3 0.7-0.6 1.4-0.3 0.7-0.6 1.4-0.2 0.7-0.4 1.5-0.2 0.7-0.3 1.5-0.1 0.7-0.2 1.5 0 0.8-0.1 1.6 0 0.7 0.1 1.5 0 0.8 0.1 1.5l0.1 0.4v0.4q0.1 0.4 0.2 0.7 0.1 0.8 0.4 1.5 0.1 0.4 0.2 0.8 0.1 0.3 0.2 0.7 0.2 0.4 0.3 0.7 0.2 0.4 0.3 0.7 0.3 0.7 0.7 1.4 0.4 0.7 0.8 1.4 0.4 0.6 0.8 1.3 0.4 0.6 0.9 1.2 0.5 0.6 1 1.2 0.6 0.6 1.1 1.1 0.6 0.5 1.2 1 0.6 0.5 1.2 1 0.6 0.4 1.3 0.8 0.6 0.4 1.3 0.8 0.7 0.4 1.4 0.7 0.7 0.3 1.4 0.6 0.4 0.1 0.8 0.3 0.3 0.1 0.7 0.2 0.4 0.1 0.8 0.3 0.3 0.1 0.7 0.2 1.5 0.4 3.1 0.6 0.8 0.1 1.5 0.2 0.8 0.1 1.6 0.2 0.8 0 1.6 0.1 0.8 0 1.6 0c4.2-0.1 8.4-0.7 12.6-1.7q3.1-0.7 6.1-1.7 3.1-1 6.1-2.2 0.8-0.2 1.5-0.6 0.7-0.3 1.5-0.6l3-1.2 6-2.5 12-5 6-2.6q3-1.2 6-2.5l0.3-0.2h0.1c0.1-0.1 0.1-0.1 0.1-0.1q0 0 0.1 0 0 0 0 0 0.1 0 0.1 0 0-0.1 0-0.1 0.1 0 0.1 0 0 0 0.1 0 0 0 0 0 0.1 0 0.1 0 0.1 0 0.1 0 0 0 0.1 0 0 0 0 0 0.1 0 0.1 0 0.1 0 0.1 0.1 0 0 0.1 0 0 0 0 0 0.1 0 0.1 0 0 0.1 0.1 0.1 0 0 0 0 0.1 0 0.1 0 0 0.1 0.1 0.1 0 0 0.1 0.1 0.1 0.1 0.1 0.1 0.1 0.1 0.1 0.2 0.1 0.1 0.1 0.1 0 0.1 0.1 0.1 0 0.1 0 0.1 0 0.1 0 0.1 0 0.1 0.1 0.1 0 0.1 0 0.1 0 0.1 0 0.2 0 0 0.1 0.1 0 0.1 0 0.1 0.1 0.5 0.1 0.9l0.1 0.8q0.1 1.6 0.4 3.2 0.1 0.7 0.3 1.5 0.2 0.7 0.4 1.5 0.3 0.7 0.6 1.4 0.2 0.8 0.6 1.5 0.3 0.7 0.7 1.3 0.4 0.7 0.8 1.3 0.5 0.7 0.9 1.3 0.5 0.6 1.1 1.1 0.5 0.6 1.1 1.1 0.5 0.5 1.2 1 0.6 0.5 1.2 0.9 0.6 0.4 1.3 0.8 0.3 0.2 0.7 0.4 0.3 0.2 0.7 0.4 0.3 0.2 0.7 0.4 0.3 0.1 0.7 0.3 0.7 0.3 1.4 0.6 0.4 0.2 0.8 0.3l0.3 0.1 0.4 0.2 0.8 0.3q0.4 0.1 0.8 0.3 0.4 0.1 0.7 0.3l0.4 0.2 0.4 0.2q0.4 0.1 0.8 0.3 0.4 0.2 0.7 0.4 0.4 0.2 0.8 0.4 0.3 0.2 0.7 0.5 0.7 0.4 1.4 0.9 0.7 0.5 1.4 1 0.6 0.6 1.2 1.2 0.6 0.6 1.2 1.2 0.3 0.3 0.6 0.7 0.2 0.3 0.5 0.7 0.2 0.3 0.5 0.7 0.2 0.3 0.4 0.7 0.3 0.3 0.5 0.7 0.2 0.4 0.4 0.8 0.2 0.4 0.3 0.8 0.2 0.3 0.4 0.7 0.3 0.8 0.5 1.7 0.3 0.8 0.5 1.6 0.1 0.9 0.2 1.7 0.2 0.9 0.2 1.7 0 0.4 0 0.9 0 0.4 0 0.8 0 0.4 0 0.9 0 0.4-0.1 0.8 0 0.8-0.2 1.7 0 0.4-0.1 0.8l15.4 6.8 2 0.9 1.7 0.8 0.3 0.1q1.1 0.4 2.1 0.9 1 0.5 2 1.2 0.2 0.1 0.5 0.3 0.2 0.1 0.5 0.3 0.2 0.2 0.4 0.4 0.2 0.1 0.5 0.3 0.2 0.2 0.4 0.4 0.3 0.2 0.5 0.4 0.2 0.3 0.4 0.5 0.2 0.2 0.4 0.5 0.2 0.2 0.3 0.5 0.2 0.3 0.3 0.6 0.2 0.3 0.3 0.6 0.1 0.4 0.1 0.7 0 0.2 0.1 0.3 0 0.2 0 0.4 0 0.2-0.1 0.3 0 0.2 0 0.4 0 0 0 0.1 0.5 0 1.1 0 0.2 0 0.5 0 0.2 0 0.5 0 0.3-0.1 0.5-0.1 0.3-0.1 0.5-0.2 0.1 0 0.2 0 0.1-0.1 0.2-0.1 0.2-0.1 0.2-0.2 0.1 0 0.2-0.1 0.1 0 0.2-0.1 0.1-0.1 0.1-0.1 0.1-0.1 0.2-0.2 0-0.1 0.1-0.2 0-0.1 0-0.2 0.1-0.1 0.1-0.2 0-0.1 0.1-0.2 0-0.1 0-0.2 0-0.1 0-0.2v-0.2c0-0.1 0-0.2 0-0.2q0-0.2-0.1-0.3 0-0.2-0.1-0.5-0.1-0.2-0.2-0.4-0.1-0.3-0.2-0.5-0.2-0.2-0.3-0.4-0.2-0.3-0.3-0.5-0.2-0.2-0.4-0.4-0.2-0.2-0.3-0.5-0.2-0.2-0.4-0.4-0.4-0.4-0.8-0.8-0.4-0.4-0.9-0.8-0.4-0.4-0.8-0.7-0.5-0.4-0.9-0.8-1.9-1.4-3.9-2.7-2-1.2-4-2.3-2.1-1.1-4.3-2.1l-1.1-0.4q-0.1-0.1-0.3-0.2l-0.2-0.1q-0.3-0.2-0.6-0.3-0.2-0.1-0.3-0.2-0.1-0.1-0.3-0.2-0.1 0-0.2-0.1-0.2-0.1-0.3-0.2-0.1-0.1-0.2-0.2-0.2-0.1-0.3-0.2-0.1-0.1-0.2-0.3-0.2-0.1-0.3-0.2-0.2-0.2-0.4-0.5-0.2-0.2-0.4-0.5-0.2-0.3-0.4-0.6-0.2-0.2-0.3-0.5-0.1-0.3-0.2-0.6-0.2-0.4-0.3-0.7 0-0.3-0.1-0.6-0.1-0.3-0.1-0.7c-0.2-1.7 0-3.4 0.4-5q0.2-0.6 0.4-1.1 0.2-0.6 0.4-1.2 0.3-0.6 0.5-1.1 0.3-0.6 0.5-1.1 0.6-1.1 1.2-2.2 0.6-1 1.2-2 0.3-0.5 0.6-1 0.3-0.5 0.5-1.1 0.3-0.5 0.5-1 0.3-0.5 0.5-1.1 0.2-0.5 0.3-1.1 0.2-0.5 0.3-1.1 0.1-0.5 0.1-1.1 0.1-0.6 0.1-1.1 0-0.6-0.1-1.2 0-0.5-0.1-1.1-0.1-0.6-0.2-1.1-0.1-0.6-0.3-1.1-0.2-0.6-0.4-1.1-0.2-0.5-0.4-1.1-0.2-0.5-0.5-1-0.3-0.5-0.6-1-0.1-0.2 0-0.5 0-0.2 0.2-0.3 0.2-0.2 0.4-0.2 0.3 0.1 0.4 0.2 1 1 2 2 1 1 2 1.9 2 1.8 4.2 3.6 2.3 1.8 4.7 3.4 0.2-0.3 0.4-0.5l0.4-0.5q0.4-0.6 0.8-1.1 0.4-0.5 0.8-1 0.4-0.5 0.9-0.9 0.4-0.5 0.9-1 0.4-0.4 0.9-0.9 0.4-0.4 0.9-0.9 0.5-0.4 1-0.8 0.5-0.4 1-0.8 0.5-0.4 1-0.8 0.6-0.4 1.1-0.7 0.5-0.4 1.1-0.7 0.5-0.3 1.1-0.7 0.5-0.3 1.1-0.6 0.6-0.3 1.2-0.5 1.1-0.6 2.4-1 0.3-0.1 0.6-0.2 0.3-0.1 0.6-0.2 0.3-0.1 0.6-0.1 0.3-0.1 0.6-0.2-0.3 0.1-0.6 0.2-0.3 0.1-0.6 0.2-0.3 0.1-0.6 0.2-0.3 0.1-0.6 0.2-1.2 0.5-2.3 1.1-0.6 0.3-1.1 0.6-0.6 0.3-1.1 0.6-0.6 0.4-1.1 0.7-0.5 0.4-1.1 0.8-0.5 0.3-1 0.7-0.5 0.4-1 0.8-0.4 0.4-0.9 0.8-0.5 0.5-0.9 0.9-0.5 0.5-0.9 0.9-0.5 0.5-0.9 0.9-0.4 0.5-0.9 1-0.4 0.5-0.8 1-0.4 0.4-0.7 1-0.4 0.5-0.8 1l-0.4 0.5q-0.1 0.3-0.3 0.5-0.4 0.5-0.8 1.1-0.5 0.5-0.9 0.9-0.4 0.5-0.9 1-0.4 0.5-0.9 0.9-0.4 0.5-0.9 0.9-1.9 1.7-4 3.3-2.1 1.5-4.2 3-2.2 1.4-4.4 2.7-0.1 0.2-0.2 0.5-0.1 0.2-0.2 0.5-0.1 0.3-0.2 0.5 0 0.3-0.1 0.5c-0.4 1.5-0.6 3-0.4 4.5q0.1 0.3 0.1 0.7 0.6-0.2 1.2-0.4 4.7-1.6 9.3-3.6 4.6-1.9 9.1-4.1 2.2-1.2 4.5-2.3 1.1-0.6 2.2-1.2 0.5-0.3 1-0.6l0.1-0.1 0.2-0.1 0.2-0.2 0.6-0.3zm-26.2 1.9q-0.6 1-1.1 2 1.4-0.7 2.7-1.6 1.1-0.6 2.1-1.3 1.1-0.7 2.1-1.5 1-0.7 2-1.5 1-0.8 2-1.6 0.5-0.4 0.9-0.8 0.5-0.5 0.9-0.9 0.5-0.4 0.9-0.9 0.5-0.5 0.9-0.9l0.1-0.2q-2.4-1.6-4.7-3.3-2.2-1.7-4.3-3.6-0.8-0.7-1.6-1.4 0.3 0.6 0.5 1.3 0.2 0.5 0.3 1.2 0.2 0.6 0.3 1.2 0.1 0.6 0.1 1.2 0.1 0.6 0.1 1.2 0 0.7-0.1 1.3-0.1 0.6-0.2 1.2-0.1 0.6-0.2 1.2-0.2 0.7-0.4 1.2-0.2 0.6-0.4 1.2-0.3 0.5-0.5 1.1-0.3 0.6-0.6 1.1-0.3 0.5-0.6 1-0.6 1.1-1.2 2.1zm-46.7-30z"/>
		<path id="Layer" class="s0" d="m189.1 139.9q0.6 0 1.3-0.1 0.6 0 1.3 0 0.6-0.1 1.3-0.2-0.1 0.3-0.1 0.6 0 0.3-0.1 0.6 0 0.3-0.1 0.6 0 0.2-0.1 0.5-0.6 0.1-1.2 0.1-0.6 0.1-1.2 0.1-0.6 0-1.3 0-0.6 0-1.2 0-0.6-0.1-1.3-0.1-0.6-0.1-1.3-0.2-0.7-0.1-1.3-0.2-0.6-0.1-1.3-0.3-0.6-0.1-1.3-0.3-0.6-0.3-1.2-0.5-0.7-0.3-1.3-0.6-0.6-0.3-1.1-0.6h-0.1q0-0.1 0-0.1-0.1 0-0.1 0 0-0.1 0-0.1-0.1 0-0.1 0c0-0.1-0.1-0.2-0.1-0.2l-0.1-0.2q-0.1-0.1-0.2-0.3-0.1 0-0.1-0.1-0.1-0.1-0.1-0.2-0.1-0.1-0.1-0.1-0.1-0.1-0.1-0.2-0.1-0.2-0.2-0.4-0.1-0.2-0.2-0.4 0-0.2-0.1-0.4 0-0.2 0-0.4 0-0.1 0-0.3 0-0.1 0-0.2 0-0.1 0-0.3 0-0.1 0.1-0.2 0-0.1 0.1-0.3 0-0.1 0.1-0.2 0-0.1 0.1-0.2 0.1-0.1 0.2-0.2 0-0.1 0.1-0.2 0.1-0.1 0.2-0.2 0.1-0.1 0.2-0.1 0.1-0.1 0.2-0.2 0.1 0 0.2-0.1h0.1v-0.1h0.1l0.1-0.1h0.1l0.1-0.1h0.2l0.2-0.1q0.1 0 0.1 0 0 0 0.1 0 0 0 0 0 0 0 0.1 0 0 0 0-0.1 0.1 0 0.1 0 0 0 0 0 0.1 0 0.1 0 0.1 0 0.2 0 0.2 0 0.3 0 0.1 0 0.2 0 0.1 0 0.3 0.1 0.1 0 0.2 0 0.1 0.1 0.2 0.1 0.1 0 0.2 0.1 0.1 0 0.2 0.1 0.1 0 0.2 0 0 0.1 0.1 0.1 0.1 0.1 0.2 0.1 0.1 0.1 0.2 0.1c0.4 0.3 0.7 0.6 1 0.8q0.5 0.4 1 0.7 0.3 0.1 0.5 0.2 0.3 0.2 0.6 0.3 0.2 0.1 0.5 0.2 0.3 0.1 0.5 0.2 0.1 0 0.1 0 0.1 0 0.1 0 0.1 0 0.1 0 0.1 0 0.2 0 0 0 0.1 0 0 0 0.1 0 0.1 0 0.1 0 0.1 0 0.2 0 0.1 0 0.3 0 0.1 0 0.3-0.1 0.1 0 0.2 0 0.2 0 0.3-0.1 0.6-0.1 1.2-0.3 0.6-0.1 1.2-0.3 0.6-0.2 1.2-0.4 0.6-0.2 1.2-0.4h0.2q0.2 0.8 0.3 1.8-0.6 0.2-1.2 0.4-0.6 0.2-1.2 0.4-0.6 0.2-1.3 0.4-0.6 0.1-1.2 0.3-0.2 0-0.3 0.1-0.2 0-0.4 0-0.1 0-0.3 0.1-0.2 0-0.3 0-0.1 0-0.2 0-0.1 0-0.2 0-0.1 0-0.2 0-0.1 0-0.2 0-0.1 0-0.2 0-0.1 0-0.2 0-0.1 0-0.2 0-0.1 0-0.2-0.1-0.4-0.1-0.7-0.2-0.4-0.1-0.7-0.2-0.3-0.1-0.6-0.3-0.3-0.2-0.7-0.3-0.6-0.4-1.1-0.8-0.5-0.3-1-0.7-0.1 0-0.1 0-0.1-0.1-0.1-0.1-0.1 0-0.1-0.1-0.1 0-0.2 0 0 0-0.1-0.1 0 0 0 0-0.1 0-0.1 0-0.1 0-0.1 0-0.1 0-0.1-0.1-0.1 0-0.1 0 0 0-0.1 0 0 0-0.1 0.1 0 0 0 0 0 0 0 0 0 0 0 0 0 0 0 0-0.1 0-0.1 0 0 0 0 0 0 0 0 0 0 0 0 0h-0.1-0.1v0.1h-0.1-0.1l-0.1 0.1q-0.1 0-0.1 0 0 0.1-0.1 0.1 0 0 0 0-0.1 0.1-0.1 0.1 0 0 0 0-0.1 0.1-0.1 0.1 0 0 0 0 0 0.1 0 0.1 0 0 0 0 0 0.1 0 0.1 0 0-0.1 0.1 0 0 0 0 0 0.1 0.1 0.1 0 0.1 0 0.2 0 0.1 0.1 0.2 0 0.1 0 0.2 0.1 0.1 0.1 0.2 0.1 0.1 0.1 0.1 0 0.1 0.1 0.2 0 0 0 0.1 0.1 0 0.1 0.1 0.1 0.1 0.2 0.2v0.1q0.5 0.3 1 0.5 0.5 0.3 1.1 0.5 0.5 0.2 1 0.3 0.6 0.2 1.1 0.4 0.6 0.1 1.2 0.2 0.6 0.1 1.2 0.2 0.6 0.1 1.2 0.1 0.6 0 1.2 0.1 0.6 0 1.3 0z"/>
		<path id="Layer" class="s0" d="m166.3 132.3l-51.3-1 51.3-1v2z"/>
		<path id="Layer" class="s0" d="m154.7 141.4l-65.6-1 65.6-1v2z"/>
		<path id="Layer" class="s0" d="m145.7 83.6l-36.6-0.9 40-1.1v0.2q-1.8 0.9-3.4 1.8z"/>
	</g>
	<g id="Layer">
		<g id="Layer">
			<path id="Layer" fill-rule="evenodd" class="s0" d="m84.5 182.3v8.8h-0.3v2.1h0.3v9.5h-2.4v-22.4h15.4v2zm0 10.9v-2.1h11.6v2.1zm15.7 9.5h-2.5l10.3-22.4h2.3l10.2 22.4h-2.5l-2.6-6h0.8l-0.7-1.9h-1l-5.4-12.1-5.4 12.1h-1.2l-0.7 1.9h1.1zm8.9-19.9l0.5-1.1h-1zm-6.2 14l0.8-2h10.8l0.9 2zm27.5 6.1q-2.5 0-4.8-0.8-2.2-0.8-3.5-2.1l0.9-1.8q1.2 1.1 3.2 1.9 2 0.8 4.2 0.8 2.1 0 3.5-0.5 1.3-0.5 1.9-1.4 0.6-0.9 0.6-2 0-1.3-0.7-2.1-0.8-0.8-2-1.3-1.2-0.5-2.7-0.8-1.4-0.4-2.9-0.8-1.5-0.4-2.7-1-1.2-0.7-2-1.8-0.8-1.1-0.8-2.9 0-1.7 0.9-3.1 0.9-1.4 2.7-2.2 1.9-0.9 4.7-0.9 1.9 0 3.7 0.6 1.9 0.5 3.2 1.4l-0.8 1.9q-1.4-0.9-3-1.4-1.6-0.4-3.1-0.4-2 0-3.4 0.5-1.3 0.6-1.9 1.5-0.6 0.9-0.6 2 0 1.3 0.7 2.1 0.8 0.8 2 1.3 1.3 0.4 2.7 0.8 1.5 0.3 3 0.8 1.4 0.4 2.6 1 1.3 0.7 2 1.8 0.8 1.1 0.8 2.8 0 1.7-0.9 3-0.9 1.4-2.8 2.3-1.8 0.8-4.7 0.8zm19.9-0.2h-2.3v-20.3h-7.9v-2.1h18.1v2.1h-7.9zm21.1 0.2q-2.5 0-4.7-0.9-2.1-0.8-3.7-2.4-1.6-1.5-2.4-3.6-0.9-2.1-0.9-4.5 0-2.5 0.9-4.6 0.8-2 2.4-3.6 1.6-1.5 3.7-2.4 2.2-0.8 4.7-0.8 2.4 0 4.6 0.8 2.1 0.8 3.6 2.5l-1.5 1.5q-1.4-1.5-3-2.1-1.7-0.6-3.6-0.6-2 0-3.8 0.7-1.7 0.7-3 1.9-1.3 1.3-2 3-0.7 1.7-0.7 3.7 0 2 0.7 3.7 0.7 1.7 2 2.9 1.3 1.3 3 2 1.8 0.7 3.8 0.7 1.9 0 3.6-0.7 1.6-0.6 3-2l1.5 1.5q-1.5 1.6-3.6 2.4-2.2 0.9-4.6 0.9zm15.6-0.2h-2.3v-22.4h8.3q2.9 0 4.9 0.9 2.1 0.9 3.2 2.6 1.1 1.7 1.1 4.2 0 2.3-1.1 4-1.1 1.8-3.2 2.7-0.4 0.1-0.8 0.3l5.5 7.7h-2.6l-5.2-7.2q-0.8 0.1-1.8 0.1h-6zm0-7.1v-1.1l-0.1 0.1 0.1 0.1v-1.1h-1l0.9 1-0.9 1zm-1.1-13.3h1.1v-1.1zm7 11.2q3.3 0 5.1-1.4 1.7-1.5 1.7-4.2 0-2.7-1.7-4.1-1.8-1.5-5.1-1.5h-6v11.2zm22.2 9.2h-2.3v-7.8l-9-14.6h2.5l7.7 12.5 7.7-12.5h2.4l-9 14.6zm-2.3-7.7l0.5 0.9-0.5-1.5zm1.2-2.1l-0.7 1.1h1.4zm1.1 2.1v-0.6l-0.6 1.5zm14.6 7.7h-2.4v-22.4h8.4q2.8 0 4.9 0.9 2 0.9 3.1 2.6 1.1 1.8 1.1 4.2 0 2.4-1.1 4.1-1.1 1.7-3.1 2.6-2.1 0.9-4.9 0.9h-6zm0-7v-1.2l-0.1 0.1 0.1 0.1v-1.1h-1.1l1 1-1 1.1zm-1-13.3h1v-1.1zm7 11.2q3.4 0 5.1-1.5 1.8-1.5 1.8-4.1 0-2.7-1.8-4.2-1.7-1.4-5.1-1.4h-5.9v11.2zm20.3 9.1h-2.4v-20.3h-7.9v-2.1h18.2v2.1h-7.9zm21.1 0.1q-2.5 0-4.7-0.8-2.1-0.9-3.7-2.4-1.6-1.6-2.5-3.6-0.9-2.1-0.9-4.5 0-2.5 0.9-4.6 0.9-2 2.5-3.6 1.6-1.5 3.7-2.4 2.1-0.8 4.7-0.8 2.5 0 4.7 0.8 2.1 0.9 3.7 2.4 1.6 1.5 2.5 3.6 0.9 2.1 0.9 4.6 0 2.4-0.9 4.5-0.9 2.1-2.5 3.6-1.6 1.5-3.7 2.4-2.2 0.8-4.7 0.8zm0-2.1q2 0 3.7-0.7 1.7-0.6 3-1.9 1.3-1.3 2-3 0.7-1.6 0.7-3.6 0-2.1-0.7-3.7-0.7-1.7-2-3-1.3-1.3-3-1.9-1.7-0.7-3.7-0.7-2 0-3.7 0.7-1.8 0.6-3 1.9-1.3 1.3-2 3-0.7 1.6-0.7 3.7 0 1.9 0.7 3.6 0.7 1.7 2 3 1.2 1.3 3 1.9 1.7 0.7 3.7 0.7z"/>
		</g>
	</g>
</svg>